<?xml version="1.0" standalone="no"?>
<!DOCTYPE svg PUBLIC "-//W3C//DTD SVG 20010904//EN"
 "http://www.w3.org/TR/2001/REC-SVG-20010904/DTD/svg10.dtd">
<svg version="1.0" xmlns="http://www.w3.org/2000/svg"
 width="700.000000pt" height="700.000000pt" viewBox="0 0 700.000000 700.000000"
 preserveAspectRatio="xMidYMid meet">

<g transform="translate(0.000000,700.000000) scale(0.100000,-0.100000)"
fill="#000000" stroke="none">
<path d="M3035 5976 c-403 -63 -719 -311 -870 -682 -64 -158 -80 -247 -79
-454 0 -152 4 -203 22 -286 31 -145 83 -286 161 -443 207 -412 517 -770 1120
-1292 286 -247 515 -455 633 -572 116 -116 259 -283 312 -364 l28 -42 67 90
c157 209 365 415 781 774 379 327 638 574 817 775 307 347 535 765 598 1095
90 472 -69 923 -417 1185 -415 313 -985 302 -1497 -27 -95 -62 -240 -174 -286
-223 -55 -58 -59 -58 -133 11 -367 344 -850 518 -1257 455z m1295 -854 c20
-16 24 -32 31 -123 10 -125 71 -880 99 -1209 10 -129 24 -306 31 -392 7 -87
14 -156 16 -155 2 2 41 217 88 478 131 727 132 729 152 745 23 17 64 18 86 2
18 -14 30 -55 127 -432 33 -125 61 -231 64 -233 3 -3 23 32 46 76 29 58 48 85
66 91 28 11 542 14 593 4 57 -12 74 -85 27 -116 -6 -4 -117 -8 -246 -8 -129 0
-252 -3 -273 -7 -38 -6 -39 -7 -103 -141 -36 -75 -72 -144 -81 -154 -21 -24
-75 -23 -97 1 -10 10 -45 128 -82 272 -36 139 -67 255 -69 257 -2 2 -6 -9 -9
-25 -12 -57 -246 -1364 -246 -1374 0 -5 -9 -18 -20 -29 -28 -28 -85 -27 -104
3 -10 16 -33 259 -85 902 -39 484 -73 896 -76 915 -2 19 -4 50 -5 69 0 54 -8
33 -34 -95 -120 -580 -147 -707 -156 -724 -15 -27 -58 -36 -89 -19 -18 10 -32
33 -46 72 -19 56 -35 74 -35 40 0 -10 -29 -139 -64 -287 -66 -280 -73 -296
-122 -296 -60 0 -66 19 -216 668 -12 50 -24 92 -27 92 -4 0 -19 -41 -35 -92
-17 -50 -38 -100 -48 -110 -17 -17 -41 -18 -302 -18 l-285 0 -20 26 c-26 33
-26 45 0 77 l20 27 246 2 246 3 67 198 c36 109 73 203 81 208 23 15 68 10 87
-9 10 -10 26 -50 35 -88 9 -38 44 -184 77 -324 33 -140 63 -262 66 -270 4 -8
28 80 55 195 68 294 69 296 105 311 46 19 75 0 99 -64 11 -28 22 -52 25 -52 6
0 22 78 149 700 39 190 73 355 76 368 13 56 72 79 115 44z"/>
<path d="M350 3010 l0 -630 328 0 c367 -1 489 -9 556 -38 37 -17 189 -143 406
-336 115 -103 677 -574 820 -688 210 -167 377 -257 536 -289 89 -18 140 -19
1066 -17 907 3 975 4 1005 21 51 27 82 67 100 126 28 98 -13 201 -101 249 -28
15 -107 17 -886 22 -838 6 -857 6 -932 27 -180 51 -262 110 -524 375 -171 173
-214 222 -224 255 -18 59 -6 106 39 153 34 36 43 40 85 40 26 0 61 -7 79 -16
18 -9 129 -112 247 -230 118 -117 229 -218 245 -224 75 -28 179 -5 232 52 51
54 68 153 38 225 -8 19 -53 74 -98 122 -46 47 -250 266 -452 486 -679 736
-681 738 -831 813 -224 113 -400 132 -1196 132 l-538 0 0 -630z"/>
</g>
</svg>
